<svg width="94" height="94" viewBox="0 0 94 94" fill="none" xmlns="http://www.w3.org/2000/svg">
<g clip-path="url(#clip0_4_367)">
<path d="M89.2914 34.4752C88.1633 33.4474 86.8437 32.6521 85.408 32.1346C83.9723 31.6171 82.4486 31.3876 80.9242 31.4593C79.3998 31.531 77.9044 31.9024 76.5236 32.5523C75.1428 33.2022 73.9036 34.1178 72.8768 35.2469L60.4636 48.8872C59.3847 47.0987 57.8624 45.6191 56.044 44.5916C54.2255 43.5641 52.1726 43.0234 50.0839 43.022H12.0494C8.97928 43.022 6.03491 44.2416 3.86401 46.4125C1.69311 48.5834 0.473511 51.5278 0.473511 54.5979L0.473511 81.6083C0.473511 84.6784 1.69311 87.6228 3.86401 89.7937C6.03491 91.9646 8.97928 93.1842 12.0494 93.1842H52.3644L90.1288 50.7972C92.1563 48.5097 93.2047 45.5176 93.0481 42.4649C92.8914 39.4123 91.5424 36.5431 89.2914 34.4752ZM84.3678 45.6652L48.907 85.467H12.0494C11.026 85.467 10.0446 85.0604 9.32094 84.3368C8.5973 83.6132 8.19077 82.6317 8.19077 81.6083V54.5979C8.19077 53.5746 8.5973 52.5931 9.32094 51.8695C10.0446 51.1458 11.026 50.7393 12.0494 50.7393H50.0839C51.2013 50.7345 52.2789 51.1543 53.0984 51.9139C53.918 52.6735 54.4184 53.7161 54.4983 54.8306C54.5782 55.9452 54.2317 57.0485 53.5289 57.9173C52.8261 58.786 51.8195 59.3553 50.7129 59.51L30.7946 62.3538L31.8905 69.9939L51.8049 67.1462C53.9892 66.8258 56.0453 65.9177 57.7533 64.5189C59.4613 63.1201 60.7569 61.2834 61.5016 59.2051L78.5837 40.4368C78.9271 40.0564 79.3428 39.7483 79.8066 39.5303C80.2703 39.3123 80.7728 39.1889 81.2848 39.1673C82.317 39.126 83.3247 39.4886 84.0939 40.1782C84.8492 40.8738 85.3011 41.8382 85.3524 42.8638C85.4036 43.8893 85.0501 44.8939 84.3678 45.6613V45.6652ZM40.692 35.8836L42.9184 37.4618L45.1449 35.8836C46.8928 34.6488 62.2116 23.5051 62.2116 12.9247C62.3063 9.75435 61.1417 6.67547 58.9723 4.36153C56.803 2.04758 53.8056 0.686907 50.6357 0.577121C47.8075 0.540978 45.0633 1.53848 42.9184 3.38234C40.7736 1.53848 38.0294 0.540978 35.2012 0.577121C32.0313 0.686907 29.0339 2.04758 26.8645 4.36153C24.6952 6.67547 23.5306 9.75435 23.6253 12.9247C23.6253 23.5051 38.9441 34.6488 40.692 35.8836ZM35.2012 8.29438C35.7167 8.26027 36.2336 8.3367 36.7172 8.51855C37.2008 8.70041 37.64 8.98348 38.0054 9.34882C38.3707 9.71417 38.6538 10.1533 38.8356 10.637C39.0175 11.1206 39.0939 11.6375 39.0598 12.153H46.7771C46.743 11.6375 46.8194 11.1206 47.0012 10.637C47.1831 10.1533 47.4662 9.71417 47.8315 9.34882C48.1969 8.98348 48.636 8.70041 49.1196 8.51855C49.6033 8.3367 50.1201 8.26027 50.6357 8.29438C51.7572 8.40691 52.7898 8.95505 53.5113 9.82094C54.2329 10.6868 54.5859 11.8013 54.4943 12.9247C54.4943 17.0689 48.3205 23.6054 42.9184 27.9001C38.1337 24.0414 31.3425 17.3776 31.3425 12.9247C31.251 11.8013 31.6039 10.6868 32.3255 9.82094C33.0471 8.95505 34.0797 8.40691 35.2012 8.29438Z" fill="white"/>
</g>
<defs>
<clipPath id="clip0_4_367">
<rect width="92.6071" height="92.6071" fill="white" transform="translate(0.473511 0.577148)"/>
</clipPath>
</defs>
</svg>
