<svg width="18" height="18" viewBox="0 0 18 18" fill="none" xmlns="http://www.w3.org/2000/svg">
<g clip-path="url(#clip0_4_376)">
<path d="M9.74992 0.749977C9.74992 0.551065 9.82893 0.360299 9.96959 0.219647C10.1102 0.0789947 10.301 -2.29773e-05 10.4999 -2.29773e-05C12.4884 0.00216072 14.3947 0.793038 15.8008 2.19909C17.2068 3.60514 17.9977 5.51152 17.9999 7.49998C17.9999 7.69889 17.9209 7.88966 17.7802 8.03031C17.6396 8.17096 17.4488 8.24998 17.2499 8.24998C17.051 8.24998 16.8602 8.17096 16.7196 8.03031C16.5789 7.88966 16.4999 7.69889 16.4999 7.49998C16.4981 5.90923 15.8654 4.38414 14.7406 3.25931C13.6157 2.13448 12.0907 1.50176 10.4999 1.49998C10.301 1.49998 10.1102 1.42096 9.96959 1.28031C9.82893 1.13965 9.74992 0.948889 9.74992 0.749977V0.749977ZM10.4999 4.49998C11.2956 4.49998 12.0586 4.81605 12.6212 5.37866C13.1838 5.94127 13.4999 6.70433 13.4999 7.49998C13.4999 7.69889 13.5789 7.88966 13.7196 8.03031C13.8602 8.17096 14.051 8.24998 14.2499 8.24998C14.4488 8.24998 14.6396 8.17096 14.7802 8.03031C14.9209 7.88966 14.9999 7.69889 14.9999 7.49998C14.9987 6.30687 14.5242 5.16297 13.6806 4.31931C12.8369 3.47566 11.693 3.00117 10.4999 2.99998C10.301 2.99998 10.1102 3.079 9.96959 3.21965C9.82893 3.3603 9.74992 3.55106 9.74992 3.74998C9.74992 3.94889 9.82893 4.13965 9.96959 4.28031C10.1102 4.42096 10.301 4.49998 10.4999 4.49998V4.49998ZM17.3197 12.5542C17.7543 12.9901 17.9984 13.5805 17.9984 14.196C17.9984 14.8115 17.7543 15.4019 17.3197 15.8377L16.6372 16.6245C10.4947 22.5052 -4.45282 7.56148 1.33718 1.39948L2.19968 0.649477C2.636 0.226985 3.22112 -0.00673617 3.82845 -0.00112185C4.43578 0.00449248 5.01648 0.248991 5.44492 0.679477C5.46817 0.702727 6.85792 2.50798 6.85792 2.50798C7.27029 2.9412 7.49985 3.51667 7.49887 4.11478C7.49789 4.71288 7.26646 5.28761 6.85267 5.71948L5.98417 6.81148C6.46481 7.97931 7.17147 9.04066 8.06355 9.93455C8.95563 10.8284 10.0156 11.5372 11.1824 12.0202L12.2812 11.1465C12.7131 10.733 13.2877 10.5018 13.8856 10.501C14.4836 10.5002 15.0588 10.7297 15.4919 11.142C15.4919 11.142 17.2964 12.531 17.3197 12.5542ZM16.2877 13.6447C16.2877 13.6447 14.4929 12.264 14.4697 12.2407C14.3151 12.0875 14.1064 12.0016 13.8888 12.0016C13.6712 12.0016 13.4624 12.0875 13.3079 12.2407C13.2877 12.2617 11.7749 13.467 11.7749 13.467C11.673 13.5481 11.5517 13.6013 11.4229 13.6213C11.2941 13.6413 11.1624 13.6274 11.0407 13.581C9.52901 13.0182 8.15597 12.137 7.01455 10.9973C5.87312 9.85754 4.98997 8.4858 4.42492 6.97498C4.37482 6.85157 4.35849 6.71704 4.3776 6.58523C4.39671 6.45342 4.45058 6.32907 4.53367 6.22498C4.53367 6.22498 5.73892 4.71148 5.75917 4.69198C5.91237 4.53747 5.99833 4.32869 5.99833 4.1111C5.99833 3.89352 5.91237 3.68474 5.75917 3.53023C5.73592 3.50773 4.35517 1.71148 4.35517 1.71148C4.19835 1.57086 3.99368 1.49555 3.78311 1.50099C3.57254 1.50643 3.37203 1.5922 3.22267 1.74073L2.36018 2.49073C-1.87132 7.57873 11.0819 19.8135 15.5407 15.6L16.2239 14.8125C16.384 14.6642 16.4802 14.4594 16.4921 14.2415C16.504 14.0236 16.4307 13.8096 16.2877 13.6447V13.6447Z" fill="#92908E" fill-opacity="0.6"/>
</g>
<defs>
<clipPath id="clip0_4_376">
<rect width="18" height="18" fill="white"/>
</clipPath>
</defs>
</svg>
