<svg width="20" height="20" viewBox="0 0 20 20" fill="none" xmlns="http://www.w3.org/2000/svg">
<g clip-path="url(#clip0_378_1006)">
<path d="M15.4842 1.78402L10.2634 0.043189C10.0925 -0.0137453 9.90769 -0.0137453 9.73675 0.043189L4.51592 1.78402C3.68584 2.05976 2.96376 2.59007 2.45229 3.29961C1.94081 4.00916 1.66595 4.86185 1.66675 5.73652V10.0007C1.66675 16.3032 9.33342 19.784 9.66175 19.929C9.76827 19.9763 9.88353 20.0008 10.0001 20.0008C10.1166 20.0008 10.2319 19.9763 10.3384 19.929C10.6667 19.784 18.3334 16.3032 18.3334 10.0007V5.73652C18.3342 4.86185 18.0594 4.00916 17.5479 3.29961C17.0364 2.59007 16.3143 2.05976 15.4842 1.78402V1.78402ZM16.6667 10.0007C16.6667 14.5465 11.4009 17.5282 10.0001 18.2415C8.59758 17.5307 3.33342 14.5582 3.33342 10.0007V5.73652C3.33347 5.21175 3.49865 4.70031 3.80555 4.27464C4.11246 3.84898 4.54554 3.53068 5.04342 3.36486L10.0001 1.71236L14.9567 3.36486C15.4546 3.53068 15.8877 3.84898 16.1946 4.27464C16.5015 4.70031 16.6667 5.21175 16.6667 5.73652V10.0007Z" fill="#F57702"/>
<path d="M12.7499 6.91697L9.25994 10.417L7.38994 8.46698C7.31489 8.38492 7.22418 8.31872 7.12316 8.27227C7.02213 8.22581 6.91283 8.20004 6.80169 8.19649C6.69055 8.19293 6.57982 8.21165 6.47603 8.25154C6.37223 8.29144 6.27747 8.3517 6.19733 8.42879C6.11719 8.50587 6.05329 8.59821 6.00938 8.70038C5.96548 8.80254 5.94247 8.91246 5.9417 9.02365C5.94093 9.13484 5.96243 9.24507 6.00492 9.34782C6.04741 9.45058 6.11003 9.5438 6.18911 9.62198L8.11077 11.622C8.25409 11.7768 8.4273 11.9009 8.61995 11.9868C8.8126 12.0728 9.02068 12.1188 9.23161 12.122H9.25911C9.46582 12.1227 9.67061 12.0823 9.86159 12.0032C10.0526 11.9241 10.2259 11.8078 10.3716 11.6612L13.9316 8.10114C14.0094 8.02355 14.0711 7.93141 14.1132 7.82997C14.1554 7.72853 14.1771 7.61979 14.1772 7.50994C14.1773 7.4001 14.1558 7.29131 14.1139 7.18978C14.072 7.08825 14.0104 6.99598 13.9329 6.91822C13.8553 6.84047 13.7631 6.77876 13.6617 6.73662C13.5602 6.69447 13.4515 6.67272 13.3417 6.67261C13.2318 6.67249 13.123 6.69401 13.0215 6.73594C12.92 6.77787 12.8277 6.83938 12.7499 6.91697V6.91697Z" fill="#F57702"/>
</g>
<defs>
<clipPath id="clip0_378_1006">
<rect width="20" height="20" fill="white"/>
</clipPath>
</defs>
</svg>
