<svg width="20" height="20" viewBox="0 0 20 20" fill="none" xmlns="http://www.w3.org/2000/svg">
<g clip-path="url(#clip0_378_1012)">
<path d="M14.1668 11.6667C14.1668 11.8877 14.079 12.0997 13.9227 12.2559C13.7664 12.4122 13.5545 12.5 13.3334 12.5H6.66678C6.44576 12.5 6.2338 12.4122 6.07752 12.2559C5.92124 12.0997 5.83345 11.8877 5.83345 11.6667C5.83345 11.4457 5.92124 11.2337 6.07752 11.0774C6.2338 10.9211 6.44576 10.8334 6.66678 10.8334H13.3334C13.5545 10.8334 13.7664 10.9211 13.9227 11.0774C14.079 11.2337 14.1668 11.4457 14.1668 11.6667ZM10.8334 14.1667H6.66678C6.44576 14.1667 6.2338 14.2545 6.07752 14.4108C5.92124 14.567 5.83345 14.779 5.83345 15C5.83345 15.221 5.92124 15.433 6.07752 15.5893C6.2338 15.7456 6.44576 15.8334 6.66678 15.8334H10.8334C11.0545 15.8334 11.2664 15.7456 11.4227 15.5893C11.579 15.433 11.6668 15.221 11.6668 15C11.6668 14.779 11.579 14.567 11.4227 14.4108C11.2664 14.2545 11.0545 14.1667 10.8334 14.1667ZM18.3334 8.73752V15.8334C18.3321 16.938 17.8927 17.9971 17.1116 18.7782C16.3305 19.5593 15.2714 19.9987 14.1668 20H5.83345C4.72878 19.9987 3.66974 19.5593 2.88863 18.7782C2.10751 17.9971 1.6681 16.938 1.66678 15.8334V4.16669C1.6681 3.06202 2.10751 2.00298 2.88863 1.22187C3.66974 0.440754 4.72878 0.00134242 5.83345 1.92072e-05H9.59595C10.3623 -0.00195323 11.1214 0.148009 11.8295 0.441235C12.5375 0.734461 13.1804 1.16513 13.7209 1.70835L16.6243 4.61335C17.1678 5.15355 17.5987 5.79623 17.8921 6.50416C18.1855 7.2121 18.3355 7.9712 18.3334 8.73752ZM12.5426 2.88669C12.2803 2.63265 11.9859 2.41412 11.6668 2.23669V5.83335C11.6668 6.05437 11.7546 6.26633 11.9109 6.42261C12.0671 6.57889 12.2791 6.66669 12.5001 6.66669H16.0968C15.9192 6.34768 15.7004 6.05347 15.4459 5.79169L12.5426 2.88669ZM16.6668 8.73752C16.6668 8.60002 16.6401 8.46835 16.6276 8.33335H12.5001C11.8371 8.33335 11.2012 8.06996 10.7323 7.60112C10.2635 7.13228 10.0001 6.49639 10.0001 5.83335V1.70585C9.86511 1.69335 9.73261 1.66669 9.59595 1.66669H5.83345C5.1704 1.66669 4.53452 1.93008 4.06568 2.39892C3.59684 2.86776 3.33345 3.50364 3.33345 4.16669V15.8334C3.33345 16.4964 3.59684 17.1323 4.06568 17.6011C4.53452 18.07 5.1704 18.3334 5.83345 18.3334H14.1668C14.8298 18.3334 15.4657 18.07 15.9345 17.6011C16.4034 17.1323 16.6668 16.4964 16.6668 15.8334V8.73752Z" fill="#F57702"/>
</g>
<defs>
<clipPath id="clip0_378_1012">
<rect width="20" height="20" fill="white"/>
</clipPath>
</defs>
</svg>
