<svg width="18" height="18" viewBox="0 0 18 18" fill="none" xmlns="http://www.w3.org/2000/svg">
<path d="M9.00012 0C7.36592 3.70344e-05 5.76855 0.485411 4.41059 1.39456C3.05264 2.30372 1.99528 3.59568 1.37262 5.10661C0.749965 6.61754 0.590063 8.27935 0.913195 9.88128C1.23633 11.4832 2.02794 12.9531 3.18762 14.1045L6.14487 16.8353C6.90499 17.5793 7.92554 17.9972 8.9892 18C10.0529 18.0028 11.0756 17.5903 11.8396 16.8503L14.8336 14.0835C15.9874 12.9297 16.773 11.4597 17.0914 9.85942C17.4097 8.25912 17.2463 6.60036 16.6219 5.0929C15.9975 3.58544 14.9401 2.29698 13.5834 1.39046C12.2268 0.483934 10.6318 5.17943e-05 9.00012 0V0ZM13.7941 13.0028L10.8061 15.7635C10.3148 16.2264 9.66457 16.4831 8.98955 16.4805C8.31453 16.478 7.66623 16.2165 7.17837 15.75L4.22712 13.023C3.44221 12.2381 2.86299 11.2717 2.54077 10.2095C2.21854 9.14721 2.16326 8.02189 2.37982 6.93318C2.59639 5.84447 3.0781 4.82597 3.7823 3.9679C4.48651 3.10983 5.39146 2.43867 6.417 2.01388C7.44254 1.58908 8.55702 1.42376 9.66172 1.53256C10.7664 1.64136 11.8272 2.02092 12.7502 2.63762C13.6732 3.25432 14.4298 4.08913 14.9531 5.06809C15.4763 6.04705 15.7501 7.13996 15.7501 8.25C15.7534 9.13203 15.5823 10.006 15.2466 10.8217C14.9109 11.6373 14.4173 12.3786 13.7941 13.0028V13.0028ZM12.5326 5.74725L10.2826 4.1865C9.90566 3.92602 9.45832 3.7865 9.00012 3.7865C8.54192 3.7865 8.09458 3.92602 7.71762 4.1865L5.46762 5.74725C5.16905 5.95438 4.92509 6.23073 4.75661 6.55269C4.58812 6.87465 4.50011 7.23262 4.50012 7.596V10.125C4.50012 10.6223 4.69767 11.0992 5.0493 11.4508C5.40093 11.8025 5.87784 12 6.37512 12H11.6251C12.1224 12 12.5993 11.8025 12.9509 11.4508C13.3026 11.0992 13.5001 10.6223 13.5001 10.125V7.596C13.5001 7.23262 13.4121 6.87465 13.2436 6.55269C13.0752 6.23073 12.8312 5.95438 12.5326 5.74725V5.74725ZM12.0001 10.125C12.0001 10.2245 11.9606 10.3198 11.8903 10.3902C11.82 10.4605 11.7246 10.5 11.6251 10.5H10.5001V9C10.5001 8.80109 10.4211 8.61032 10.2805 8.46967C10.1398 8.32902 9.94903 8.25 9.75012 8.25H8.25012C8.05121 8.25 7.86044 8.32902 7.71979 8.46967C7.57914 8.61032 7.50012 8.80109 7.50012 9V10.5H6.37512C6.27567 10.5 6.18028 10.4605 6.10996 10.3902C6.03963 10.3198 6.00012 10.2245 6.00012 10.125V7.596C6.00008 7.47483 6.02939 7.35546 6.08556 7.24809C6.14172 7.14073 6.22306 7.04857 6.32262 6.9795L8.57262 5.41875C8.69841 5.33226 8.84747 5.28595 9.00012 5.28595C9.15277 5.28595 9.30184 5.33226 9.42762 5.41875L11.6776 6.9795C11.7772 7.04857 11.8585 7.14073 11.9147 7.24809C11.9708 7.35546 12.0002 7.47483 12.0001 7.596V10.125Z" fill="rgba(245, 119, 2, 1)"/>
</svg>
